<svg id="Layer_1" data-name="Layer 1" xmlns="http://www.w3.org/2000/svg" viewBox="0 0 24 24"><defs><style>.cls-1{fill:#fffdfd;}</style></defs><title>fire</title><path class="cls-1" d="M12,24A10.12,10.12,0,0,1,2,14,10.75,10.75,0,0,1,3.69,8.44a1,1,0,0,1,1.8.38,4.86,4.86,0,0,0,1.43,2.39c0-3.1.88-9,6.74-11.13a1,1,0,0,1,1,.22,1,1,0,0,1,.27,1c0,.06-1.3,4.6.54,7a8.84,8.84,0,0,1,2.94-4.08A1,1,0,0,1,20,4.81a21.38,21.38,0,0,0,1,3.31A14.59,14.59,0,0,1,22,14,10.12,10.12,0,0,1,12,24ZM4.47,11.39A7.83,7.83,0,0,0,4,14a8.09,8.09,0,0,0,8,8,8.09,8.09,0,0,0,8-8,12.64,12.64,0,0,0-.93-5.19c-.2-.54-.41-1.13-.62-1.85A9.87,9.87,0,0,0,17,10.22a1,1,0,0,1-.58.69,1,1,0,0,1-.9,0c-3.11-1.79-3.18-5.65-2.87-8.06C8.05,5.86,9,12.78,9,12.85a1,1,0,0,1-1.33,1.08A6.26,6.26,0,0,1,4.47,11.39Z"/></svg>