<svg width="300" height="191" viewBox="0 0 300 191" fill="none" xmlns="http://www.w3.org/2000/svg">
<rect width="300" height="191" fill="#C4C4C4"/>
<path d="M212.311 129.947C212.311 136.592 209.67 142.964 204.97 147.662C200.27 152.361 193.896 155 187.249 155H168.452C161.805 155 155.43 152.361 150.73 147.662C146.03 142.964 143.39 136.592 143.39 129.947V117.421H185.933L203.226 87.5458L213 93.1826L198.965 117.421H212.311V129.947ZM130.859 155H87C87 136.211 87 117.421 89.0676 97.5668C90.7593 81.7211 93.7668 65.1863 97.0249 48.5263H93.2655V36H124.593V48.5263H120.834C124.092 65.1863 127.099 81.7211 128.791 97.5668C130.859 117.421 130.859 136.211 130.859 155Z" fill="white"/>
</svg>
