<svg width="655" height="655" viewBox="0 0 655 655" fill="none" xmlns="http://www.w3.org/2000/svg">
<rect width="655" height="655" fill="white"/>
<path fill-rule="evenodd" clip-rule="evenodd" d="M510.265 393.6H584V121H510.265C428.204 121 361.681 182.024 361.681 257.3C361.681 332.577 428.204 393.6 510.265 393.6ZM499.225 353.576H544.326V161.025H499.225C446.739 161.025 404.191 204.129 404.191 257.3C404.191 310.472 446.739 353.576 499.225 353.576Z" fill="url(#paint0_linear)"/>
<path fill-rule="evenodd" clip-rule="evenodd" d="M274.975 132.884C256.9 125.248 236.86 121 215.766 121C135.814 121 71 182.024 71 257.3C71 332.577 135.814 393.6 215.766 393.6C236.86 393.6 256.9 389.353 274.975 381.716C261.299 373.362 249.087 363.064 238.781 351.236C231.561 352.768 224.051 353.576 216.34 353.576C160.184 353.576 114.66 310.714 114.66 257.841C114.66 204.968 160.184 162.106 216.34 162.106C223.769 162.106 231.012 162.857 237.988 164.281C248.459 152.069 260.946 141.453 274.975 132.884Z" fill="url(#paint1_linear)"/>
<path fill-rule="evenodd" clip-rule="evenodd" d="M419.74 132.884C401.666 125.248 381.626 121 360.532 121C280.58 121 215.766 182.024 215.766 257.3C215.766 332.577 280.58 393.6 360.532 393.6C381.626 393.6 401.666 389.352 419.74 381.716C406.065 373.362 393.853 363.064 383.547 351.236C376.327 352.768 368.817 353.576 361.106 353.576C304.95 353.576 259.426 310.714 259.426 257.841C259.426 204.968 304.95 162.106 361.106 162.106C368.535 162.106 375.778 162.857 382.754 164.281C393.225 152.069 405.712 141.453 419.74 132.884Z" fill="url(#paint2_linear)"/>
<path d="M75.17 535.7C78.2033 535.7 81.02 535.093 83.62 533.88C86.3067 532.667 88.8633 530.76 91.29 528.16L101.95 539.21C98.4833 543.023 94.3233 546.013 89.47 548.18C84.6167 550.26 79.59 551.3 74.39 551.3C69.45 551.3 64.77 550.39 60.35 548.57C56.0167 546.75 52.2467 544.28 49.04 541.16C45.92 538.04 43.45 534.357 41.63 530.11C39.81 525.777 38.9 521.14 38.9 516.2C38.9 511.26 39.81 506.667 41.63 502.42C43.45 498.087 45.92 494.36 49.04 491.24C52.2467 488.033 56.0167 485.52 60.35 483.7C64.77 481.88 69.45 480.97 74.39 480.97C79.7633 480.97 84.92 482.053 89.86 484.22C94.8 486.3 99.0033 489.247 102.47 493.06L91.55 504.63C89.1233 501.943 86.5233 499.907 83.75 498.52C80.9767 497.133 77.9867 496.44 74.78 496.44C69.6667 496.44 65.3333 498.347 61.78 502.16C58.3133 505.973 56.58 510.653 56.58 516.2C56.58 521.747 58.3567 526.383 61.91 530.11C65.55 533.837 69.97 535.7 75.17 535.7ZM105.55 516.2C105.55 511.26 106.46 506.667 108.28 502.42C110.187 498.087 112.744 494.36 115.95 491.24C119.244 488.033 123.1 485.52 127.52 483.7C131.94 481.88 136.664 480.97 141.69 480.97C146.717 480.97 151.44 481.88 155.86 483.7C160.28 485.52 164.094 488.033 167.3 491.24C170.594 494.36 173.15 498.087 174.97 502.42C176.877 506.667 177.83 511.26 177.83 516.2C177.83 521.14 176.877 525.777 174.97 530.11C173.15 534.357 170.594 538.04 167.3 541.16C164.094 544.28 160.28 546.75 155.86 548.57C151.44 550.39 146.717 551.3 141.69 551.3C136.664 551.3 131.94 550.39 127.52 548.57C123.1 546.75 119.244 544.28 115.95 541.16C112.744 538.04 110.187 534.357 108.28 530.11C106.46 525.777 105.55 521.14 105.55 516.2ZM141.69 535.83C146.89 535.83 151.31 533.923 154.95 530.11C158.59 526.297 160.41 521.66 160.41 516.2C160.41 510.653 158.59 505.973 154.95 502.16C151.31 498.347 146.89 496.44 141.69 496.44C136.49 496.44 132.07 498.347 128.43 502.16C124.79 505.973 122.97 510.653 122.97 516.2C122.97 521.66 124.79 526.297 128.43 530.11C132.07 533.923 136.49 535.83 141.69 535.83ZM206.068 482.27V521.66C206.068 525.993 207.324 529.46 209.838 532.06C212.438 534.66 215.861 535.96 220.108 535.96C223.141 535.96 225.828 535.397 228.168 534.27C230.594 533.057 232.588 531.367 234.148 529.2V482.27H251.958V550H234.148V544.54C231.548 546.707 228.644 548.397 225.438 549.61C222.231 550.737 218.764 551.3 215.038 551.3C207.238 551.3 200.824 548.787 195.798 543.76C190.771 538.647 188.258 532.147 188.258 524.26V482.27H206.068ZM265.838 550V482.27H283.648V489.68C285.815 486.733 288.415 484.523 291.448 483.05C294.568 481.49 297.992 480.71 301.718 480.71C303.452 480.797 304.882 480.97 306.008 481.23C307.222 481.403 308.262 481.75 309.128 482.27V497.87C307.828 497.263 306.398 496.83 304.838 496.57C303.278 496.223 301.675 496.05 300.028 496.05C296.562 496.05 293.355 496.917 290.408 498.65C287.548 500.383 285.295 502.897 283.648 506.19V550H265.838ZM313.82 541.94L322.66 530.11C326.646 532.71 330.416 534.66 333.97 535.96C337.523 537.173 341.076 537.78 344.63 537.78C348.616 537.78 351.78 537.13 354.12 535.83C356.546 534.53 357.76 532.797 357.76 530.63C357.76 528.897 357.066 527.51 355.68 526.47C354.38 525.43 352.256 524.693 349.31 524.26L336.31 522.31C329.636 521.27 324.523 519.103 320.97 515.81C317.503 512.517 315.77 508.14 315.77 502.68C315.77 496.18 318.326 490.98 323.44 487.08C328.553 483.18 335.4 481.23 343.98 481.23C348.92 481.23 353.73 481.967 358.41 483.44C363.09 484.827 367.553 486.907 371.8 489.68L363.22 501.12C359.493 498.953 355.94 497.35 352.56 496.31C349.18 495.183 345.756 494.62 342.29 494.62C339.083 494.62 336.483 495.227 334.49 496.44C332.583 497.653 331.63 499.257 331.63 501.25C331.63 503.07 332.323 504.5 333.71 505.54C335.183 506.493 337.566 507.187 340.86 507.62L353.86 509.57C360.446 510.523 365.516 512.69 369.07 516.07C372.71 519.45 374.53 523.74 374.53 528.94C374.53 532.147 373.75 535.137 372.19 537.91C370.716 540.597 368.68 542.937 366.08 544.93C363.48 546.923 360.36 548.483 356.72 549.61C353.08 550.737 349.136 551.3 344.89 551.3C338.736 551.3 332.973 550.52 327.6 548.96C322.226 547.313 317.633 544.973 313.82 541.94ZM444.742 541.55C440.582 544.93 436.292 547.4 431.872 548.96C427.538 550.52 422.685 551.3 417.312 551.3C412.198 551.3 407.388 550.39 402.882 548.57C398.462 546.75 394.605 544.28 391.312 541.16C388.105 538.04 385.548 534.357 383.642 530.11C381.822 525.777 380.912 521.14 380.912 516.2C380.912 511.347 381.778 506.797 383.512 502.55C385.332 498.217 387.802 494.49 390.922 491.37C394.042 488.163 397.725 485.65 401.972 483.83C406.305 482.01 410.898 481.1 415.752 481.1C420.518 481.1 424.938 482.053 429.012 483.96C433.172 485.78 436.725 488.293 439.672 491.5C442.705 494.707 445.045 498.563 446.692 503.07C448.425 507.49 449.292 512.3 449.292 517.5V522.18H398.852C400.065 526.427 402.405 529.85 405.872 532.45C409.338 535.05 413.412 536.35 418.092 536.35C421.038 536.35 423.812 535.873 426.412 534.92C429.012 533.967 431.222 532.623 433.042 530.89L444.742 541.55ZM415.362 495.79C411.288 495.79 407.778 497.047 404.832 499.56C401.885 501.987 399.848 505.28 398.722 509.44H431.872C430.745 505.453 428.665 502.203 425.632 499.69C422.685 497.09 419.262 495.79 415.362 495.79ZM511.281 550V544.41C508.595 546.577 505.605 548.223 502.311 549.35C499.018 550.39 495.595 550.91 492.041 550.91C487.275 550.91 482.768 550 478.521 548.18C474.361 546.36 470.721 543.89 467.601 540.77C464.481 537.65 462.011 533.967 460.191 529.72C458.458 525.473 457.591 520.923 457.591 516.07C457.591 511.217 458.501 506.667 460.321 502.42C462.141 498.173 464.611 494.49 467.731 491.37C470.851 488.25 474.535 485.823 478.781 484.09C483.115 482.27 487.708 481.36 492.561 481.36C495.855 481.36 499.061 481.837 502.181 482.79C505.388 483.657 508.335 484.957 511.021 486.69V459L528.831 455.1V550H511.281ZM475.141 516.07C475.141 521.53 477.048 526.167 480.861 529.98C484.675 533.793 489.355 535.7 494.901 535.7C498.195 535.7 501.185 535.137 503.871 534.01C506.645 532.883 509.028 531.28 511.021 529.2V502.81C509.115 500.817 506.731 499.257 503.871 498.13C501.098 497.003 498.108 496.44 494.901 496.44C489.268 496.44 484.545 498.347 480.731 502.16C477.005 505.887 475.141 510.523 475.141 516.07ZM539.73 516.2C539.73 511.26 540.64 506.667 542.46 502.42C544.367 498.087 546.923 494.36 550.13 491.24C553.423 488.033 557.28 485.52 561.7 483.7C566.12 481.88 570.843 480.97 575.87 480.97C580.897 480.97 585.62 481.88 590.04 483.7C594.46 485.52 598.273 488.033 601.48 491.24C604.773 494.36 607.33 498.087 609.15 502.42C611.057 506.667 612.01 511.26 612.01 516.2C612.01 521.14 611.057 525.777 609.15 530.11C607.33 534.357 604.773 538.04 601.48 541.16C598.273 544.28 594.46 546.75 590.04 548.57C585.62 550.39 580.897 551.3 575.87 551.3C570.843 551.3 566.12 550.39 561.7 548.57C557.28 546.75 553.423 544.28 550.13 541.16C546.923 538.04 544.367 534.357 542.46 530.11C540.64 525.777 539.73 521.14 539.73 516.2ZM575.87 535.83C581.07 535.83 585.49 533.923 589.13 530.11C592.77 526.297 594.59 521.66 594.59 516.2C594.59 510.653 592.77 505.973 589.13 502.16C585.49 498.347 581.07 496.44 575.87 496.44C570.67 496.44 566.25 498.347 562.61 502.16C558.97 505.973 557.15 510.653 557.15 516.2C557.15 521.66 558.97 526.297 562.61 530.11C566.25 533.923 570.67 535.83 575.87 535.83Z" fill="#FF8A00"/>
<defs>
<linearGradient id="paint0_linear" x1="472.84" y1="121" x2="472.84" y2="393.6" gradientUnits="userSpaceOnUse">
<stop stop-color="#FF8A00"/>
<stop offset="1" stop-color="#FFC000"/>
</linearGradient>
<linearGradient id="paint1_linear" x1="172.987" y1="121" x2="172.987" y2="393.6" gradientUnits="userSpaceOnUse">
<stop stop-color="#FF8A00"/>
<stop offset="1" stop-color="#FFC000"/>
</linearGradient>
<linearGradient id="paint2_linear" x1="317.753" y1="121" x2="317.753" y2="393.6" gradientUnits="userSpaceOnUse">
<stop stop-color="#FF8A00"/>
<stop offset="1" stop-color="#FFC000"/>
</linearGradient>
</defs>
</svg>
