<svg width="124" height="133" viewBox="0 0 124 133" fill="none" xmlns="http://www.w3.org/2000/svg">
<path d="M121.288 82.7508C122.786 82.7508 124 83.965 124 85.4629C124 86.9607 122.786 88.175 121.288 88.175H74.4252L95.4493 50.4578H31.1156L48.7759 88.175H2.7121C1.21425 88.175 0 86.9607 0 85.4629C0 83.965 1.21425 82.7508 2.7121 82.7508H6.11801C9.49689 82.7508 12.236 80.0116 12.236 76.6328V12C12.236 5.37259 17.6086 0 24.236 0H35.4466L57.5391 23.3187C59.8933 25.8036 63.8461 25.8185 66.219 23.3514L85.1387 3.68131C87.4011 1.32921 90.5238 0 93.7874 0H99.764C106.391 0 111.764 5.37258 111.764 12V76.6328C111.764 80.0116 114.503 82.7508 117.882 82.7508H121.288Z" fill="url(#paint0_linear)"/>
<path d="M50.823 45.1999C50.7482 45.1999 50.6744 45.1826 50.6075 45.1491C50.5406 45.1157 50.4824 45.0671 50.4376 45.0072L50.045 44.484C49.673 43.9882 49.4117 43.4182 49.2788 42.8128C49.1458 42.2073 49.1443 41.5804 49.2743 40.9743L49.9838 37.662C50.085 37.1905 50.0838 36.7029 49.9803 36.2319C49.8768 35.761 49.6735 35.3177 49.3841 34.9321L48.992 34.4094C48.954 34.3588 48.9264 34.3012 48.9107 34.2399C48.895 34.1787 48.8915 34.1149 48.9005 34.0523C48.9094 33.9896 48.9306 33.9294 48.9628 33.875C48.9951 33.8205 49.0377 33.773 49.0883 33.735C49.1389 33.6971 49.1965 33.6694 49.2578 33.6537C49.3191 33.638 49.3828 33.6346 49.4455 33.6435C49.5081 33.6525 49.5683 33.6737 49.6228 33.7059C49.6772 33.7381 49.7248 33.7808 49.7627 33.8314L50.1553 34.3545C50.5272 34.8503 50.7885 35.4202 50.9214 36.0255C51.0544 36.6309 51.056 37.2578 50.9261 37.8638L50.216 41.1761C50.1149 41.6475 50.1161 42.1352 50.2195 42.6061C50.323 43.0771 50.5263 43.5203 50.8158 43.906L51.2079 44.4291C51.2615 44.5007 51.2942 44.5857 51.3023 44.6748C51.3103 44.7638 51.2934 44.8534 51.2535 44.9334C51.2135 45.0134 51.1521 45.0807 51.0761 45.1277C51 45.1748 50.9124 45.1998 50.823 45.1999Z" fill="white"/>
<path d="M48.4145 45.1999C48.3397 45.1999 48.266 45.1826 48.1991 45.1491C48.1321 45.1157 48.074 45.0671 48.0292 45.0072L47.6366 44.484C47.2646 43.9882 47.0033 43.4182 46.8703 42.8128C46.7374 42.2073 46.7358 41.5804 46.8658 40.9743L47.5754 37.662C47.6765 37.1905 47.6753 36.7029 47.5719 36.2319C47.4684 35.761 47.2651 35.3177 46.9756 34.9321L46.5835 34.4094C46.5456 34.3588 46.518 34.3012 46.5023 34.2399C46.4866 34.1787 46.4831 34.1149 46.492 34.0523C46.501 33.9896 46.5222 33.9294 46.5544 33.875C46.5866 33.8205 46.6293 33.773 46.6799 33.735C46.7305 33.6971 46.7881 33.6694 46.8493 33.6537C46.9106 33.638 46.9744 33.6346 47.037 33.6435C47.0996 33.6525 47.1599 33.6737 47.2143 33.7059C47.2688 33.7381 47.3163 33.7808 47.3543 33.8314L47.7469 34.3545C48.1188 34.8503 48.38 35.4202 48.513 36.0255C48.6459 36.6309 48.6475 37.2578 48.5176 37.8638L47.8076 41.1761C47.7064 41.6475 47.7076 42.1352 47.8111 42.6061C47.9146 43.0771 48.1179 43.5203 48.4073 43.906L48.7994 44.4291C48.8531 44.5007 48.8858 44.5857 48.8938 44.6748C48.9019 44.7638 48.885 44.8534 48.845 44.9334C48.8051 45.0134 48.7436 45.0807 48.6676 45.1277C48.5916 45.1748 48.504 45.1998 48.4145 45.1999Z" fill="white"/>
<path d="M46.006 45.2008C45.9312 45.2009 45.8574 45.1835 45.7905 45.1501C45.7236 45.1166 45.6654 45.068 45.6206 45.0082L45.228 44.485C44.856 43.9891 44.5947 43.4192 44.4618 42.8138C44.3288 42.2083 44.3273 41.5813 44.4572 40.9752L45.1668 37.6629C45.268 37.1915 45.2668 36.7038 45.1633 36.2329C45.0598 35.762 44.8565 35.3187 44.5671 34.9331L44.175 34.4104C44.137 34.3598 44.1094 34.3022 44.0937 34.2409C44.078 34.1796 44.0745 34.1159 44.0835 34.0532C44.0924 33.9906 44.1136 33.9304 44.1458 33.8759C44.1781 33.8215 44.2207 33.7739 44.2713 33.736C44.3219 33.698 44.3795 33.6704 44.4408 33.6547C44.5021 33.639 44.5658 33.6355 44.6285 33.6445C44.6911 33.6534 44.7513 33.6746 44.8058 33.7069C44.8602 33.7391 44.9077 33.7817 44.9457 33.8323L45.3378 34.3555C45.7098 34.8513 45.9711 35.4211 46.1042 36.0265C46.2372 36.6318 46.2389 37.2587 46.109 37.8648L45.399 41.1771C45.2979 41.6485 45.2991 42.1362 45.4025 42.6071C45.506 43.0781 45.7093 43.5213 45.9987 43.907L46.3909 44.4301C46.4445 44.5016 46.4772 44.5867 46.4852 44.6758C46.4933 44.7648 46.4764 44.8543 46.4364 44.9343C46.3965 45.0143 46.3351 45.0816 46.259 45.1287C46.183 45.1758 46.0954 45.2008 46.006 45.2008Z" fill="white"/>
<path d="M45.7773 45.1999C45.7025 45.1999 45.6287 45.1826 45.5618 45.1491C45.4949 45.1157 45.4368 45.0671 45.392 45.0072L44.9994 44.484C44.6274 43.9882 44.3661 43.4182 44.2331 42.8128C44.1002 42.2073 44.0986 41.5804 44.2286 40.9743L44.9382 37.662C45.0393 37.1905 45.0381 36.7029 44.9346 36.2319C44.8312 35.761 44.6279 35.3177 44.3384 34.9321L43.9463 34.4094C43.9084 34.3588 43.8807 34.3012 43.865 34.2399C43.8493 34.1787 43.8459 34.1149 43.8548 34.0523C43.8638 33.9896 43.885 33.9294 43.9172 33.875C43.9494 33.8205 43.9921 33.773 44.0427 33.735C44.0933 33.6971 44.1509 33.6694 44.2121 33.6537C44.2734 33.638 44.3372 33.6346 44.3998 33.6435C44.4624 33.6525 44.5227 33.6737 44.5771 33.7059C44.6316 33.7381 44.6791 33.7808 44.7171 33.8314L45.1097 34.3545C45.4816 34.8503 45.7428 35.4202 45.8758 36.0255C46.0087 36.6309 46.0103 37.2578 45.8804 37.8638L45.1704 41.1761C45.0692 41.6475 45.0704 42.1352 45.1739 42.6061C45.2773 43.0771 45.4807 43.5203 45.7701 43.906L46.1622 44.4291C46.2159 44.5007 46.2485 44.5857 46.2566 44.6748C46.2647 44.7638 46.2478 44.8534 46.2078 44.9334C46.1679 45.0134 46.1064 45.0807 46.0304 45.1277C45.9544 45.1748 45.8667 45.1998 45.7773 45.1999Z" fill="white"/>
<path d="M43.3689 45.1999C43.2941 45.1999 43.2203 45.1826 43.1534 45.1491C43.0865 45.1157 43.0283 45.0671 42.9835 45.0072L42.5909 44.484C42.2189 43.9882 41.9576 43.4182 41.8247 42.8128C41.6917 42.2073 41.6902 41.5804 41.8202 40.9743L42.5297 37.662C42.6309 37.1905 42.6297 36.7029 42.5262 36.2319C42.4227 35.761 42.2194 35.3177 41.93 34.9321L41.5379 34.4094C41.4999 34.3588 41.4723 34.3012 41.4566 34.2399C41.4409 34.1787 41.4374 34.1149 41.4464 34.0523C41.4553 33.9896 41.4765 33.9294 41.5087 33.875C41.541 33.8205 41.5836 33.773 41.6342 33.735C41.6848 33.6971 41.7424 33.6694 41.8037 33.6537C41.865 33.638 41.9287 33.6346 41.9914 33.6435C42.054 33.6525 42.1142 33.6737 42.1687 33.7059C42.2231 33.7381 42.2707 33.7808 42.3086 33.8314L42.7012 34.3545C43.0731 34.8503 43.3344 35.4202 43.4673 36.0255C43.6003 36.6309 43.6019 37.2578 43.472 37.8638L42.7619 41.1761C42.6608 41.6475 42.662 42.1352 42.7654 42.6061C42.8689 43.0771 43.0722 43.5203 43.3617 43.906L43.7538 44.4291C43.8074 44.5007 43.8401 44.5857 43.8482 44.6748C43.8562 44.7638 43.8393 44.8534 43.7994 44.9334C43.7594 45.0134 43.698 45.0807 43.622 45.1277C43.5459 45.1748 43.4583 45.1998 43.3689 45.1999Z" fill="white"/>
<path d="M40.9602 45.2008C40.8854 45.2009 40.8116 45.1835 40.7447 45.1501C40.6778 45.1166 40.6196 45.068 40.5748 45.0082L40.1822 44.485C39.8102 43.9891 39.549 43.4192 39.416 42.8138C39.283 42.2083 39.2815 41.5813 39.4115 40.9752L40.121 37.6629C40.2222 37.1915 40.221 36.7038 40.1175 36.2329C40.014 35.762 39.8107 35.3187 39.5213 34.9331L39.1292 34.4104C39.0912 34.3598 39.0636 34.3022 39.0479 34.2409C39.0322 34.1796 39.0287 34.1159 39.0377 34.0532C39.0466 33.9906 39.0678 33.9304 39.1 33.8759C39.1323 33.8215 39.1749 33.7739 39.2255 33.736C39.2761 33.698 39.3337 33.6704 39.395 33.6547C39.4563 33.639 39.5201 33.6355 39.5827 33.6445C39.6453 33.6534 39.7056 33.6746 39.76 33.7069C39.8144 33.7391 39.862 33.7817 39.8999 33.8323L40.292 34.3555C40.664 34.8513 40.9254 35.4211 41.0584 36.0265C41.1915 36.6318 41.1931 37.2587 41.0633 37.8648L40.3532 41.1771C40.2521 41.6485 40.2533 42.1362 40.3567 42.6071C40.4602 43.0781 40.6635 43.5213 40.953 43.907L41.3451 44.4301C41.3987 44.5016 41.4314 44.5867 41.4395 44.6758C41.4475 44.7648 41.4306 44.8543 41.3907 44.9343C41.3507 45.0143 41.2893 45.0816 41.2133 45.1287C41.1372 45.1758 41.0496 45.2008 40.9602 45.2008Z" fill="white"/>
<path d="M74.2016 48.0957H27.8813V59.6289C27.8813 74.6221 38.4396 86.5398 51.7226 86.5398H72.1581C85.4411 86.5398 95.9994 74.6221 95.9994 59.6289V48.0957H74.2016Z" fill="#FEFFDF"/>
<path d="M74.2016 48.0957H27.8813V59.6289C27.8813 74.6221 38.4396 86.5398 51.7226 86.5398H72.1581C85.4411 86.5398 95.9994 74.6221 95.9994 59.6289V48.0957H74.2016Z" fill="#FEFFDF"/>
<path d="M99.1661 28.418C98.7821 27.9946 98.122 27.9787 97.718 28.383L74.7157 51.4042L77.1625 52.0188L99.788 30.5589C100.182 30.1848 100.206 29.5641 99.8405 29.1615L99.1661 28.418Z" fill="#FEFFDF"/>
<path d="M95.061 24.6557C94.6685 24.2402 94.0082 24.2376 93.6125 24.65L71.0799 48.1312L73.5387 48.6963L95.726 26.7836C96.1127 26.4016 96.1235 25.7806 95.7502 25.3854L95.061 24.6557Z" fill="#FEFFDF"/>
<path d="M88.5536 29.8672L90.5705 31.8826L89.8785 32.5751L87.8617 30.5596L88.5536 29.8672Z" fill="url(#paint1_linear)"/>
<path d="M87.246 31.1782L89.2629 33.1937L88.5709 33.8861L86.554 31.8706L87.246 31.1782Z" fill="url(#paint2_linear)"/>
<path d="M91.9071 34.1885L93.924 36.2039L93.2321 36.8963L91.2152 34.8809L91.9071 34.1885Z" fill="url(#paint3_linear)"/>
<path d="M90.5547 35.4551L92.5716 37.4705L91.8796 38.1629L89.8628 36.1475L90.5547 35.4551Z" fill="url(#paint4_linear)"/>
<path d="M13.368 98.8L24.168 112.156L34.968 98.8H38.784V124H34.896V113.308C34.896 111.748 34.92 110.272 34.968 108.88C35.04 107.464 35.148 106.06 35.292 104.668L25.356 116.764H22.98L13.044 104.668C13.188 106.06 13.284 107.464 13.332 108.88C13.404 110.272 13.44 111.748 13.44 113.308V124H9.552V98.8H13.368ZM73.4441 124L70.5641 118.096H55.6241L52.7441 124H48.6401L60.9521 98.8H65.4881L77.7281 124H73.4441ZM61.1321 106.792L57.4601 114.352H68.7281L64.9841 106.648C64.6481 105.952 64.3241 105.292 64.0121 104.668C63.7001 104.02 63.3881 103.324 63.0761 102.58C62.7641 103.348 62.4401 104.068 62.1041 104.74C61.7921 105.412 61.4681 106.096 61.1321 106.792ZM91.4149 98.8L102.215 112.156L113.015 98.8H116.831V124H112.943V113.308C112.943 111.748 112.967 110.272 113.015 108.88C113.087 107.464 113.195 106.06 113.339 104.668L103.403 116.764H101.027L91.0909 104.668C91.2349 106.06 91.3309 107.464 91.3789 108.88C91.4509 110.272 91.4869 111.748 91.4869 113.308V124H87.5989V98.8H91.4149Z" fill="#FF7A00"/>
<defs>
<linearGradient id="paint0_linear" x1="62" y1="0" x2="62" y2="88.175" gradientUnits="userSpaceOnUse">
<stop stop-color="#FFE600"/>
<stop offset="1" stop-color="#E62626"/>
</linearGradient>
<linearGradient id="paint1_linear" x1="89.562" y1="30.8749" x2="88.8701" y2="31.5673" gradientUnits="userSpaceOnUse">
<stop stop-color="#FFE600"/>
<stop offset="1" stop-color="#E62626"/>
</linearGradient>
<linearGradient id="paint2_linear" x1="88.2544" y1="32.1859" x2="87.5625" y2="32.8784" gradientUnits="userSpaceOnUse">
<stop stop-color="#FFE600"/>
<stop offset="1" stop-color="#E62626"/>
</linearGradient>
<linearGradient id="paint3_linear" x1="92.9155" y1="35.1962" x2="92.2236" y2="35.8886" gradientUnits="userSpaceOnUse">
<stop stop-color="#FFE600"/>
<stop offset="1" stop-color="#E62626"/>
</linearGradient>
<linearGradient id="paint4_linear" x1="91.5631" y1="36.4628" x2="90.8712" y2="37.1552" gradientUnits="userSpaceOnUse">
<stop stop-color="#FFE600"/>
<stop offset="1" stop-color="#E62626"/>
</linearGradient>
</defs>
</svg>
