<svg width="784" height="596" viewBox="0 0 784 596" fill="none" xmlns="http://www.w3.org/2000/svg">
<path d="M764.73 559.336C774.854 559.336 783.062 567.544 783.062 577.668C783.062 587.793 774.854 596 764.73 596H469.996L602.764 341.059H196.496L308.02 596H18.3319C8.20749 596 0 587.793 0 577.668C0 567.544 8.20747 559.336 18.3319 559.336H58.3637C68.8057 559.336 77.2706 550.871 77.2706 540.429V18.9069C77.2706 8.46493 85.7355 0 96.1775 0H223.846L383.633 180.521C387.377 184.751 393.969 184.775 397.744 180.574L554.379 6.26953C557.965 2.27914 563.077 0 568.442 0H686.884C697.326 0 705.791 8.46492 705.791 18.9069V540.429C705.791 550.871 714.256 559.336 724.698 559.336H764.73Z" fill="#F6A13A"/>
<path d="M320.948 305.518C320.476 305.518 320.01 305.401 319.588 305.175C319.165 304.949 318.798 304.62 318.515 304.215L316.035 300.679C313.686 297.328 312.036 293.475 311.197 289.383C310.357 285.29 310.347 281.053 311.168 276.956L315.649 254.567C316.288 251.38 316.28 248.084 315.627 244.901C314.973 241.718 313.69 238.722 311.862 236.115L309.386 232.582C309.146 232.24 308.971 231.851 308.872 231.437C308.773 231.022 308.751 230.591 308.808 230.168C308.864 229.745 308.998 229.337 309.202 228.97C309.405 228.602 309.674 228.28 309.994 228.024C310.314 227.767 310.677 227.58 311.064 227.474C311.451 227.368 311.854 227.345 312.249 227.405C312.645 227.466 313.025 227.609 313.369 227.827C313.713 228.045 314.013 228.333 314.253 228.675L316.732 232.211C319.081 235.562 320.73 239.414 321.57 243.506C322.41 247.598 322.42 251.835 321.599 255.931L317.115 278.32C316.477 281.507 316.484 284.803 317.138 287.986C317.791 291.169 319.075 294.165 320.903 296.772L323.379 300.308C323.718 300.792 323.924 301.367 323.975 301.969C324.026 302.571 323.919 303.176 323.667 303.717C323.415 304.257 323.027 304.712 322.547 305.03C322.066 305.348 321.513 305.517 320.948 305.518Z" fill="#F3F3F3"/>
<path d="M305.738 305.518C305.266 305.518 304.8 305.401 304.378 305.175C303.955 304.949 303.588 304.62 303.305 304.215L300.826 300.679C298.477 297.328 296.827 293.475 295.987 289.383C295.147 285.29 295.138 281.053 295.958 276.956L300.439 254.567C301.078 251.38 301.07 248.084 300.417 244.901C299.764 241.718 298.48 238.722 296.652 236.115L294.176 232.582C293.936 232.24 293.762 231.851 293.662 231.437C293.563 231.022 293.541 230.591 293.598 230.168C293.654 229.745 293.788 229.337 293.992 228.97C294.195 228.602 294.464 228.28 294.784 228.024C295.104 227.767 295.467 227.58 295.854 227.474C296.241 227.368 296.644 227.345 297.04 227.405C297.435 227.466 297.815 227.609 298.159 227.827C298.503 228.045 298.803 228.333 299.043 228.675L301.522 232.211C303.871 235.562 305.521 239.414 306.36 243.506C307.2 247.598 307.21 251.835 306.389 255.931L301.906 278.32C301.267 281.507 301.274 284.803 301.928 287.986C302.581 291.169 303.865 294.165 305.693 296.772L308.169 300.308C308.508 300.792 308.714 301.367 308.765 301.969C308.816 302.571 308.709 303.176 308.457 303.717C308.205 304.257 307.817 304.712 307.337 305.03C306.857 305.348 306.303 305.517 305.738 305.518Z" fill="#F3F3F3"/>
<path d="M290.528 305.518C290.056 305.518 289.59 305.401 289.168 305.175C288.745 304.949 288.378 304.62 288.095 304.215L285.615 300.679C283.266 297.328 281.616 293.475 280.777 289.383C279.937 285.29 279.927 281.053 280.748 276.956L285.229 254.567C285.868 251.38 285.86 248.084 285.207 244.901C284.553 241.718 283.269 238.722 281.442 236.115L278.965 232.582C278.726 232.24 278.551 231.851 278.452 231.437C278.353 231.022 278.331 230.591 278.388 230.168C278.444 229.745 278.578 229.337 278.781 228.97C278.985 228.602 279.254 228.28 279.574 228.024C279.893 227.767 280.257 227.58 280.644 227.474C281.031 227.368 281.434 227.345 281.829 227.405C282.225 227.466 282.605 227.609 282.949 227.827C283.293 228.045 283.593 228.333 283.833 228.675L286.309 232.211C288.658 235.562 290.308 239.414 291.149 243.506C291.989 247.597 291.999 251.835 291.179 255.931L286.695 278.32C286.057 281.507 286.064 284.803 286.718 287.986C287.371 291.169 288.655 294.165 290.483 296.772L292.959 300.308C293.298 300.792 293.504 301.367 293.555 301.969C293.606 302.571 293.499 303.176 293.247 303.717C292.995 304.257 292.607 304.712 292.126 305.03C291.646 305.348 291.093 305.517 290.528 305.518Z" fill="#F3F3F3"/>
<path d="M289.084 305.518C288.612 305.518 288.146 305.401 287.723 305.175C287.301 304.949 286.933 304.62 286.65 304.215L284.171 300.679C281.822 297.328 280.172 293.475 279.332 289.383C278.493 285.29 278.483 281.053 279.304 276.956L283.785 254.567C284.424 251.38 284.416 248.084 283.763 244.901C283.109 241.718 281.825 238.722 279.997 236.115L277.521 232.582C277.282 232.24 277.107 231.851 277.008 231.437C276.909 231.022 276.887 230.591 276.943 230.168C277 229.745 277.134 229.337 277.337 228.97C277.541 228.602 277.81 228.28 278.13 228.024C278.449 227.767 278.813 227.58 279.2 227.474C279.587 227.368 279.99 227.345 280.385 227.405C280.781 227.466 281.161 227.609 281.505 227.827C281.849 228.045 282.149 228.333 282.389 228.675L284.868 232.211C287.216 235.562 288.866 239.414 289.706 243.506C290.545 247.598 290.555 251.835 289.735 255.931L285.251 278.32C284.612 281.507 284.62 284.803 285.273 287.986C285.927 291.169 287.211 294.165 289.038 296.772L291.515 300.308C291.853 300.792 292.06 301.367 292.111 301.969C292.162 302.571 292.055 303.176 291.803 303.717C291.55 304.257 291.162 304.712 290.682 305.03C290.202 305.348 289.649 305.517 289.084 305.518Z" fill="#F3F3F3"/>
<path d="M273.874 305.518C273.402 305.518 272.936 305.401 272.513 305.175C272.091 304.949 271.724 304.62 271.441 304.215L268.961 300.679C266.612 297.328 264.962 293.475 264.123 289.383C263.283 285.29 263.273 281.053 264.094 276.956L268.575 254.567C269.214 251.38 269.206 248.084 268.553 244.901C267.899 241.718 266.615 238.722 264.788 236.115L262.311 232.582C262.072 232.24 261.897 231.851 261.798 231.437C261.699 231.022 261.677 230.591 261.734 230.168C261.79 229.745 261.924 229.337 262.127 228.97C262.331 228.602 262.6 228.28 262.92 228.024C263.239 227.767 263.603 227.58 263.99 227.474C264.377 227.368 264.78 227.345 265.175 227.405C265.571 227.466 265.951 227.609 266.295 227.827C266.639 228.045 266.939 228.333 267.179 228.675L269.658 232.211C272.007 235.562 273.656 239.414 274.496 243.506C275.336 247.598 275.346 251.835 274.525 255.931L270.041 278.32C269.403 281.507 269.41 284.803 270.064 287.986C270.717 291.169 272.001 294.165 273.829 296.772L276.305 300.308C276.644 300.792 276.85 301.367 276.901 301.969C276.952 302.571 276.845 303.176 276.593 303.717C276.34 304.257 275.953 304.712 275.472 305.03C274.992 305.348 274.439 305.517 273.874 305.518Z" fill="#F3F3F3"/>
<path d="M258.664 305.518C258.192 305.518 257.726 305.401 257.303 305.175C256.881 304.949 256.513 304.62 256.23 304.215L253.751 300.679C251.402 297.328 249.752 293.475 248.912 289.383C248.073 285.29 248.063 281.053 248.884 276.956L253.365 254.567C254.003 251.38 253.996 248.084 253.343 244.901C252.689 241.718 251.405 238.722 249.577 236.115L247.101 232.582C246.862 232.24 246.687 231.851 246.588 231.437C246.489 231.022 246.467 230.591 246.523 230.168C246.58 229.745 246.714 229.337 246.917 228.97C247.121 228.602 247.39 228.28 247.71 228.024C248.029 227.767 248.393 227.58 248.78 227.474C249.167 227.368 249.57 227.345 249.965 227.405C250.361 227.466 250.741 227.609 251.085 227.827C251.428 228.045 251.729 228.333 251.968 228.675L254.445 232.211C256.794 235.562 258.444 239.414 259.284 243.506C260.124 247.597 260.135 251.835 259.315 255.931L254.831 278.32C254.192 281.507 254.2 284.803 254.853 287.986C255.507 291.169 256.791 294.165 258.618 296.772L261.095 300.308C261.433 300.792 261.64 301.367 261.691 301.969C261.742 302.571 261.635 303.176 261.383 303.717C261.13 304.257 260.742 304.712 260.262 305.03C259.782 305.348 259.229 305.517 258.664 305.518Z" fill="#F3F3F3"/>
<path d="M468.585 325.091H176.072V403.047C176.072 504.39 242.748 584.945 326.63 584.945H455.68C539.562 584.945 606.238 504.39 606.238 403.047V325.091H468.585Z" fill="#F3F3F3"/>
<path d="M468.585 325.091H176.072V403.047C176.072 504.39 242.748 584.945 326.63 584.945H455.68C539.562 584.945 606.238 504.39 606.238 403.047V325.091H468.585Z" fill="#F3F3F3"/>
<path d="M622.508 187.687C622.118 187.227 621.431 187.199 621.031 187.627L471.83 347.455L487.282 351.61L634.004 202.655C634.365 202.289 634.379 201.695 634.036 201.291L622.508 187.687Z" fill="#F3F3F3"/>
<path d="M596.503 162.34C596.104 161.889 595.416 161.876 595.025 162.312L448.871 325.334L464.398 329.154L608.279 177.056C608.633 176.683 608.635 176.089 608.285 175.692L596.503 162.34Z" fill="#F3F3F3"/>
<path d="M559.218 201.882L571.954 215.505L567.585 220.185L554.848 206.562L559.218 201.882Z" fill="#F6A13A"/>
<path d="M550.959 210.744L563.696 224.367L559.326 229.047L546.59 215.424L550.959 210.744Z" fill="#F6A13A"/>
<path d="M580.395 231.091L593.131 244.714L588.762 249.394L576.025 235.771L580.395 231.091Z" fill="#F6A13A"/>
<path d="M571.854 239.65L584.591 253.273L580.221 257.953L567.485 244.331L571.854 239.65Z" fill="#F6A13A"/>
</svg>
